<?xml version="1.0" encoding="UTF-8"?>
<svg version="1.1" xmlns="http://www.w3.org/2000/svg" width="811" height="811">
<path d="M0 0 C3.47294592 -0.00217512 6.94556747 -0.02035466 10.41845703 -0.03930664 C29.92330837 -0.08981037 48.99853568 1.34973959 68.25830078 4.43530273 C68.9287442 4.54201294 69.59918762 4.64872314 70.28994751 4.75866699 C105.57152182 10.41397494 138.77377799 21.10619253 171.50830078 35.18530273 C172.39469238 35.56541504 173.28108398 35.94552734 174.19433594 36.3371582 C205.72322885 50.03868558 235.36059571 69.77920389 261.72607422 91.71166992 C263.36287808 93.06506007 265.01259631 94.39930558 266.67236328 95.72436523 C271.60757402 99.6806912 276.20925012 103.7477882 280.61376953 108.28686523 C282.50836006 110.18536214 284.47342486 111.93886554 286.50830078 113.68530273 C292.69124518 119.02126845 298.29408957 124.81580324 303.60986328 131.00952148 C305.77575084 133.49182471 308.01707035 135.89585418 310.25830078 138.31030273 C334.32271371 164.77026808 354.15880848 196.0943994 369.5859375 228.27563477 C370.50122099 230.17064467 371.44196917 232.05117915 372.38720703 233.93139648 C397.99394541 285.61388498 409.6976096 344.31792418 409.69360352 401.67700195 C409.69577864 405.14994787 409.71395817 408.62256943 409.73291016 412.09545898 C409.78341388 431.60031032 408.34386393 450.67553764 405.25830078 469.93530273 C405.15159058 470.60574615 405.04488037 471.27618958 404.93493652 471.96694946 C399.27962857 507.24852378 388.58741099 540.45077995 374.50830078 573.18530273 C374.12818848 574.07169434 373.74807617 574.95808594 373.35644531 575.87133789 C359.65491794 607.4002308 339.91439963 637.03759766 317.98193359 663.40307617 C316.62854344 665.03988003 315.29429794 666.68959827 313.96923828 668.34936523 C310.01291232 673.28457597 305.94581531 677.88625207 301.40673828 682.29077148 C299.50824138 684.18536202 297.75473798 686.15042682 296.00830078 688.18530273 C290.67233506 694.36824714 284.87780027 699.97109152 278.68408203 705.28686523 C276.20177881 707.45275279 273.79774933 709.69407231 271.38330078 711.93530273 C244.92333543 735.99971566 213.59920411 755.83581043 181.41796875 771.26293945 C179.52295884 772.17822294 177.64242436 773.11897112 175.76220703 774.06420898 C124.07971853 799.67094736 65.37567933 811.37461155 8.01660156 811.37060547 C4.54365564 811.37278059 1.07103409 811.39096013 -2.40185547 811.40991211 C-21.90670681 811.46041584 -40.98193412 810.02086588 -60.24169922 806.93530273 C-60.91214264 806.82859253 -61.58258606 806.72188232 -62.27334595 806.61193848 C-97.55492026 800.95663053 -130.75717643 790.26441294 -163.49169922 776.18530273 C-164.37809082 775.80519043 -165.26448242 775.42507813 -166.17773438 775.03344727 C-197.70662729 761.33191989 -227.34399415 741.59140158 -253.70947266 719.65893555 C-255.34627652 718.3055454 -256.99599475 716.97129989 -258.65576172 715.64624023 C-263.59097246 711.68991427 -268.19264856 707.62281726 -272.59716797 703.08374023 C-274.4917585 701.18524333 -276.4568233 699.43173993 -278.49169922 697.68530273 C-284.67464362 692.34933702 -290.27748801 686.55480222 -295.59326172 680.36108398 C-297.75914927 677.87878076 -300.00046879 675.47475129 -302.24169922 673.06030273 C-326.30611215 646.60033739 -346.14220692 615.27620607 -361.56933594 583.0949707 C-362.48461942 581.19996079 -363.4253676 579.31942632 -364.37060547 577.43920898 C-389.97734385 525.75672048 -401.68100803 467.05268129 -401.67700195 409.69360352 C-401.67917708 406.22065759 -401.69735661 402.74803604 -401.71630859 399.27514648 C-401.76681232 379.77029515 -400.32726236 360.69506783 -397.24169922 341.43530273 C-397.08163391 340.4296376 -397.08163391 340.4296376 -396.91833496 339.40365601 C-391.26302701 304.12208169 -380.57080942 270.91982552 -366.49169922 238.18530273 C-366.11158691 237.29891113 -365.73147461 236.41251953 -365.33984375 235.49926758 C-351.63831637 203.97037466 -331.89779806 174.3330078 -309.96533203 147.9675293 C-308.61194188 146.33072544 -307.27769637 144.6810072 -305.95263672 143.02124023 C-301.99631075 138.0860295 -297.92921375 133.48435339 -293.39013672 129.07983398 C-291.49163982 127.18524345 -289.73813641 125.22017865 -287.99169922 123.18530273 C-282.6557335 117.00235833 -276.86119871 111.39951395 -270.66748047 106.08374023 C-268.18517724 103.91785268 -265.78114777 101.67653316 -263.36669922 99.43530273 C-236.90673387 75.3708898 -205.58260255 55.53479504 -173.40136719 40.10766602 C-171.50635728 39.19238253 -169.6258228 38.25163435 -167.74560547 37.30639648 C-116.06311697 11.69965811 -57.35907777 -0.00400608 0 0 Z " fill="#010101" transform="translate(401.49169921875,-0.185302734375)"/>
<path d="M0 0 C0.74847977 -0.00235223 1.49695955 -0.00470446 2.26812053 -0.00712797 C4.79025874 -0.01381466 7.3123454 -0.01335985 9.83449173 -0.01294994 C11.65540497 -0.01624876 13.47631748 -0.01997437 15.29722905 -0.02409142 C20.31224347 -0.03411728 25.32724592 -0.03782915 30.34226894 -0.04048073 C35.74663363 -0.04438197 41.15098882 -0.05396034 46.55534744 -0.0626936 C59.61130088 -0.08246169 72.66725509 -0.09252403 85.72321975 -0.10142139 C91.86872208 -0.10580317 98.01422354 -0.11117021 104.15972519 -0.11641026 C124.58322725 -0.13342183 145.00672876 -0.14791708 165.43023682 -0.155159 C170.73094305 -0.15706894 176.03164928 -0.15898927 181.3323555 -0.16094494 C182.64984674 -0.16142868 183.96733798 -0.16191242 185.3247532 -0.16241082 C206.67805993 -0.17071516 228.03130401 -0.19605922 249.38458738 -0.22852562 C271.29795424 -0.26157254 293.21129265 -0.27960556 315.12468457 -0.28280324 C327.43219169 -0.28497038 339.7396172 -0.29374903 352.04710007 -0.31926441 C362.52621619 -0.34093895 373.00523087 -0.34903777 383.48436686 -0.33929763 C388.83216873 -0.33474371 394.17976115 -0.33670265 399.52753448 -0.35605907 C404.42289882 -0.37362524 409.31789988 -0.37274632 414.21326771 -0.35716178 C415.98448101 -0.35477576 417.75571903 -0.35916055 419.52689442 -0.37099043 C437.3700195 -0.48278756 437.3700195 -0.48278756 444.90462112 6.13422108 C445.72639847 7.12422108 445.72639847 7.12422108 446.56477737 8.13422108 C447.13067581 8.79422108 447.69657425 9.45422108 448.27962112 10.13422108 C450.43214767 13.32869525 450.75311541 16.37610719 450.74080276 20.16840076 C450.74072723 20.94890797 450.7406517 21.72941517 450.74057388 22.5335741 C450.7354126 23.36600636 450.73025131 24.19843861 450.72493362 25.05609608 C450.7228112 26.34607502 450.7228112 26.34607502 450.7206459 27.66211414 C450.71505834 30.40285217 450.70250812 33.14350784 450.68977737 35.88422108 C450.68476077 37.74489698 450.68019814 39.60557416 450.6761055 41.46625233 C450.66509298 46.02227353 450.64783689 50.57823335 450.62727737 55.13422108 C451.31237381 54.33105457 451.31237381 54.33105457 452.01131058 53.51166248 C462.57441305 41.25874177 476.17558585 32.42044254 492.65169144 30.9540453 C511.32865497 29.78200912 528.5519679 34.0393004 543.00227737 46.50922108 C553.59824867 56.67585804 561.34469038 68.95935686 561.99837112 83.94281483 C562.52381241 112.28887687 553.05800702 131.55852642 533.62727737 152.13422108 C532.97630081 152.84965076 532.32532425 153.56508045 531.65462112 154.30218983 C516.01792626 170.84273988 495.14571982 183.65442591 474.62092972 193.20306873 C472.60878274 194.14285916 470.61284362 195.1125307 468.61555862 196.08343983 C448.95435927 205.43188789 427.80048661 211.26886785 406.59993362 215.94281483 C405.13088577 216.27019642 405.13088577 216.27019642 403.63216019 216.60419178 C400.62727737 217.13422108 400.62727737 217.13422108 397.47395706 217.26385975 C386.1759473 217.93010451 380.94743455 224.6690568 373.75227737 232.57172108 C366.86839148 239.98832302 360.05297176 247.21139642 351.93196487 253.29437733 C351.36341782 253.7293906 350.79487076 254.16440388 350.209095 254.61259937 C338.03123796 263.35379299 325.16038988 262.70822178 310.79719925 262.6517992 C308.47847429 262.65722493 306.15975278 262.66435012 303.84103775 262.67303944 C297.56627074 262.69122183 291.29176781 262.6842261 285.01699638 262.67152309 C278.43847461 262.66136914 271.85997487 262.67079542 265.28145218 262.67706776 C253.52897676 262.68560042 241.77661204 262.67240139 230.0241558 262.65203041 C219.38610711 262.63416139 208.74823307 262.63726612 198.11018753 262.65570545 C185.73198914 262.67715126 173.35390196 262.68505848 160.9756875 262.6732564 C154.43225699 262.66703254 147.88894655 262.66615547 141.34552383 262.67940235 C135.19268684 262.69098928 129.04017843 262.68288278 122.88737679 262.65982533 C120.63441322 262.65455347 118.38142182 262.65602577 116.12846947 262.66487598 C88.12195368 262.76471829 73.55809481 251.08898276 53.62727737 232.13422108 C53.06073441 231.59635975 52.49419144 231.05849842 51.9104805 230.50433826 C43.31477603 222.28380543 35.69000402 213.69855472 28.62727737 204.13422108 C28.21026566 203.57799061 27.79325394 203.02176014 27.3636055 202.4486742 C9.55299021 178.63635392 -4.35748808 152.47441992 -13.37272263 124.13422108 C-13.80923141 122.76862049 -13.80923141 122.76862049 -14.25455856 121.37543201 C-17.80995976 109.98893513 -20.19766794 98.44811065 -22.18522263 86.69672108 C-22.39243942 85.47702625 -22.59965622 84.25733143 -22.81315231 83.00067616 C-25.00298996 69.34004054 -25.54043503 55.76418337 -25.49772263 41.94672108 C-25.50158981 40.68408436 -25.505457 39.42144764 -25.50944138 38.1205492 C-25.48385979 13.37036397 -25.48385979 13.37036397 -20.37272263 7.13422108 C-13.74096187 1.56305441 -8.54361862 -0.01820342 0 0 Z " fill="#FEFEFE" transform="translate(145.37272262573242,209.86577892303467)"/>
<path d="M0 0 C3.47294592 -0.00217512 6.94556747 -0.02035466 10.41845703 -0.03930664 C29.92330837 -0.08981037 48.99853568 1.34973959 68.25830078 4.43530273 C68.9287442 4.54201294 69.59918762 4.64872314 70.28994751 4.75866699 C105.57152182 10.41397494 138.77377799 21.10619253 171.50830078 35.18530273 C172.39469238 35.56541504 173.28108398 35.94552734 174.19433594 36.3371582 C205.72322885 50.03868558 235.36059571 69.77920389 261.72607422 91.71166992 C263.36287808 93.06506007 265.01259631 94.39930558 266.67236328 95.72436523 C271.60757402 99.6806912 276.20925012 103.7477882 280.61376953 108.28686523 C282.50836006 110.18536214 284.47342486 111.93886554 286.50830078 113.68530273 C292.69124518 119.02126845 298.29408957 124.81580324 303.60986328 131.00952148 C305.77575084 133.49182471 308.01707035 135.89585418 310.25830078 138.31030273 C334.32271371 164.77026808 354.15880848 196.0943994 369.5859375 228.27563477 C370.50122099 230.17064467 371.44196917 232.05117915 372.38720703 233.93139648 C397.99394541 285.61388498 409.6976096 344.31792418 409.69360352 401.67700195 C409.69577864 405.14994787 409.71395817 408.62256943 409.73291016 412.09545898 C409.78341388 431.60031032 408.34386393 450.67553764 405.25830078 469.93530273 C405.15159058 470.60574615 405.04488037 471.27618958 404.93493652 471.96694946 C399.27962857 507.24852378 388.58741099 540.45077995 374.50830078 573.18530273 C374.12818848 574.07169434 373.74807617 574.95808594 373.35644531 575.87133789 C359.65491794 607.4002308 339.91439963 637.03759766 317.98193359 663.40307617 C316.62854344 665.03988003 315.29429794 666.68959827 313.96923828 668.34936523 C310.01291232 673.28457597 305.94581531 677.88625207 301.40673828 682.29077148 C299.50824138 684.18536202 297.75473798 686.15042682 296.00830078 688.18530273 C290.67233506 694.36824714 284.87780027 699.97109152 278.68408203 705.28686523 C276.20177881 707.45275279 273.79774933 709.69407231 271.38330078 711.93530273 C244.92333543 735.99971566 213.59920411 755.83581043 181.41796875 771.26293945 C179.52295884 772.17822294 177.64242436 773.11897112 175.76220703 774.06420898 C124.07971853 799.67094736 65.37567933 811.37461155 8.01660156 811.37060547 C4.54365564 811.37278059 1.07103409 811.39096013 -2.40185547 811.40991211 C-21.90670681 811.46041584 -40.98193412 810.02086588 -60.24169922 806.93530273 C-60.91214264 806.82859253 -61.58258606 806.72188232 -62.27334595 806.61193848 C-97.55492026 800.95663053 -130.75717643 790.26441294 -163.49169922 776.18530273 C-164.37809082 775.80519043 -165.26448242 775.42507813 -166.17773438 775.03344727 C-197.70662729 761.33191989 -227.34399415 741.59140158 -253.70947266 719.65893555 C-255.34627652 718.3055454 -256.99599475 716.97129989 -258.65576172 715.64624023 C-263.59097246 711.68991427 -268.19264856 707.62281726 -272.59716797 703.08374023 C-274.4917585 701.18524333 -276.4568233 699.43173993 -278.49169922 697.68530273 C-284.67464362 692.34933702 -290.27748801 686.55480222 -295.59326172 680.36108398 C-297.75914927 677.87878076 -300.00046879 675.47475129 -302.24169922 673.06030273 C-326.30611215 646.60033739 -346.14220692 615.27620607 -361.56933594 583.0949707 C-362.48461942 581.19996079 -363.4253676 579.31942632 -364.37060547 577.43920898 C-389.97734385 525.75672048 -401.68100803 467.05268129 -401.67700195 409.69360352 C-401.67917708 406.22065759 -401.69735661 402.74803604 -401.71630859 399.27514648 C-401.76681232 379.77029515 -400.32726236 360.69506783 -397.24169922 341.43530273 C-397.08163391 340.4296376 -397.08163391 340.4296376 -396.91833496 339.40365601 C-391.26302701 304.12208169 -380.57080942 270.91982552 -366.49169922 238.18530273 C-366.11158691 237.29891113 -365.73147461 236.41251953 -365.33984375 235.49926758 C-351.63831637 203.97037466 -331.89779806 174.3330078 -309.96533203 147.9675293 C-308.61194188 146.33072544 -307.27769637 144.6810072 -305.95263672 143.02124023 C-301.99631075 138.0860295 -297.92921375 133.48435339 -293.39013672 129.07983398 C-291.49163982 127.18524345 -289.73813641 125.22017865 -287.99169922 123.18530273 C-282.6557335 117.00235833 -276.86119871 111.39951395 -270.66748047 106.08374023 C-268.18517724 103.91785268 -265.78114777 101.67653316 -263.36669922 99.43530273 C-236.90673387 75.3708898 -205.58260255 55.53479504 -173.40136719 40.10766602 C-171.50635728 39.19238253 -169.6258228 38.25163435 -167.74560547 37.30639648 C-116.06311697 11.69965811 -57.35907777 -0.00400608 0 0 Z M-290.49169922 141.18530273 C-293.67473699 144.71001693 -296.57827878 148.43697423 -299.49169922 152.18530273 C-301.07158459 154.04240819 -302.65513952 155.89639603 -304.24169922 157.74780273 C-339.50146023 200.09221433 -364.13000313 251.21923381 -378.49169922 304.18530273 C-378.86053223 305.54268555 -378.86053223 305.54268555 -379.23681641 306.92749023 C-382.15955924 317.90132639 -384.2665456 328.994694 -386.17919922 340.18530273 C-386.48313599 341.94547729 -386.48313599 341.94547729 -386.79321289 343.74121094 C-389.92907844 362.86645849 -390.90042427 381.88498414 -390.86669922 401.24780273 C-390.86648773 402.37782715 -390.86627625 403.50785156 -390.86605835 404.67211914 C-390.82878798 424.7578467 -389.53217817 444.34034955 -386.49169922 464.18530273 C-386.30446289 465.44117188 -386.11722656 466.69704102 -385.92431641 467.9909668 C-372.52671305 555.71171691 -326.68893479 642.47994956 -258.49169922 700.18530273 C-257.14785156 701.36286133 -257.14785156 701.36286133 -255.77685547 702.56420898 C-247.14353803 710.0794021 -238.01769599 716.85340519 -228.74414062 723.55444336 C-226.71905472 725.02068809 -224.70343505 726.49876049 -222.69091797 727.98217773 C-214.58719559 733.91850733 -206.19072994 739.16894332 -197.49169922 744.18530273 C-196.87633301 744.54446777 -196.2609668 744.90363281 -195.62695312 745.27368164 C-116.21173808 791.55938798 -22.43156805 809.08352531 107.50830078 785.18530273 C164.4381097 769.6795374 216.58426259 741.63581399 260.85620117 702.63256836 C261.98564041 701.64316156 263.12328988 700.66306973 264.26782227 699.69116211 C270.06539953 694.73012547 275.47964679 689.4000989 280.87133789 684.00756836 C282.43438812 682.44669947 284.00527443 680.89402386 285.57666016 679.34155273 C291.21690119 673.73253218 296.46434838 667.99670747 301.42578125 661.7644043 C303.41728064 659.29802686 305.48561188 656.94025281 307.61376953 654.59155273 C311.60883386 650.14095423 315.24882623 645.47945616 318.82080078 640.68530273 C319.46960205 639.81510498 320.11840332 638.94490723 320.78686523 638.04833984 C331.56366579 623.45904835 340.73525833 608.0448233 349.50830078 592.18530273 C349.97768066 591.34515625 350.44706055 590.50500977 350.93066406 589.6394043 C363.15355329 567.6424849 372.15745953 544.21848021 379.50830078 520.18530273 C379.84458496 519.09620605 380.18086914 518.00710938 380.52734375 516.88500977 C395.84991183 466.55587938 401.1464649 411.69480162 393.96142578 359.49487305 C393.49814417 356.11112005 393.07930195 352.72375501 392.66455078 349.33374023 C387.88981418 311.71548566 377.82739344 274.50202329 361.50830078 240.18530273 C361.12496582 239.37319336 360.74163086 238.56108398 360.34667969 237.72436523 C352.01884929 220.2308123 342.69302482 203.0284973 331.50830078 187.18530273 C330.93281494 186.36521729 330.93281494 186.36521729 330.34570312 185.52856445 C327.43624813 181.38752089 324.48497983 177.27823643 321.50830078 173.18530273 C320.76580078 172.16307617 320.02330078 171.14084961 319.25830078 170.08764648 C310.99604526 158.88933945 301.88947592 148.45388633 292.50830078 138.18530273 C291.61225147 137.19591496 290.71642801 136.2063226 289.82080078 135.21655273 C282.5121585 127.16187037 275.10573512 119.24580542 266.82861328 112.16967773 C265.05842044 110.65577544 263.30645296 109.1205357 261.56298828 107.57592773 C243.13725002 91.34229264 222.74520985 77.46588898 201.50830078 65.18530273 C200.81365723 64.78311523 200.11901367 64.38092773 199.40332031 63.96655273 C170.41901652 47.28868856 139.6287917 35.38628175 107.50830078 26.18530273 C106.60208984 25.92523438 105.69587891 25.66516602 104.76220703 25.3972168 C82.90459497 19.250829 60.14667302 15.69309528 37.50830078 14.18530273 C36.28119385 14.09990234 35.05408691 14.01450195 33.78979492 13.92651367 C23.00798296 13.21001733 12.25030268 12.94303615 1.44580078 12.93530273 C0.15128998 12.93429062 0.15128998 12.93429062 -1.16937256 12.93325806 C-98.44057394 13.05259143 -189.48884959 49.73835695 -290.49169922 141.18530273 Z " fill="#FAFAFA" transform="translate(401.49169921875,-0.185302734375)"/>
<path d="M0 0 C55.07518797 0 55.07518797 0 66.71875 10.55859375 C76.93824792 21.42984536 78.31556937 35.7502871 78.265625 49.953125 C78.26753845 51.17094666 78.2694519 52.38876831 78.27142334 53.64349365 C78.27277805 56.20845752 78.26913176 58.7734284 78.26074219 61.33837891 C78.25007018 65.2244441 78.26064311 69.11004312 78.2734375 72.99609375 C78.27211506 75.50260517 78.26955091 78.00911631 78.265625 80.515625 C78.26967346 81.65880188 78.27372192 82.80197876 78.27789307 83.97979736 C78.19520307 98.51078101 77.24004382 112.26054184 66.890625 123.21875 C49.5583795 139.54830361 20.68352735 134 0 134 C0 89.78 0 45.56 0 0 Z " fill="#FBFBFB" transform="translate(400,495)"/>
<path d="M0 0 C54.57142857 0 54.57142857 0 65.9765625 10.88671875 C79.28199295 25.29621683 78.49609018 44.55316344 78.39111328 63.06274414 C78.37504388 66.42831045 78.39103253 69.79267329 78.41015625 73.15820312 C78.44777192 109.82521601 78.44777192 109.82521601 67.18359375 123.1484375 C50.07946698 139.52693464 19.81554755 134 0 134 C0 89.78 0 45.56 0 0 Z " fill="#FCFCFC" transform="translate(305,495)"/>
<path d="M0 0 C7.84576308 5.19537095 13.07038303 14.03013 15.34375 23.06640625 C17.70390686 37.6033016 14.02418243 49.09666952 5.56103516 60.97851562 C-16.08279086 89.86017642 -50.90570324 105.86117242 -85.83251953 111.45800781 C-91.93467162 112.295975 -98.06077566 112.61325491 -104.21484375 112.78515625 C-102.84685941 108.38237169 -101.11448455 104.36139872 -99.08984375 100.22265625 C-91.61301165 84.45715381 -86.25690612 68.23329224 -81.7578125 51.39453125 C-77.69464959 36.48113442 -77.69464959 36.48113442 -72.46484375 30.16015625 C-71.99022705 29.57532471 -71.51561035 28.99049316 -71.02661133 28.38793945 C-53.44061729 7.17956251 -28.74628145 -15.76736072 0 0 Z " fill="#020202" transform="translate(666.21484375,272.21484375)"/>
<path d="M0 0 C1.084021 0.00523682 2.16804199 0.01047363 3.28491211 0.01586914 C4.45473633 0.0190918 5.62456055 0.02231445 6.82983398 0.02563477 C8.0615332 0.03401367 9.29323242 0.04239258 10.56225586 0.05102539 C12.41560547 0.05779297 12.41560547 0.05779297 14.30639648 0.06469727 C17.37089703 0.07652931 20.43530307 0.09301366 23.49975586 0.11352539 C30.48671715 25.04757728 37.09859046 50.08021322 43.70831299 75.11633301 C44.47080243 78.00387883 45.23394034 80.8912524 45.99731445 83.77856445 C47.14299014 88.11230139 48.28736825 92.44637856 49.43048096 96.78079224 C49.84260339 98.34326222 50.25498539 99.90566377 50.66766357 101.46798706 C52.74045268 109.31846242 54.7876205 117.1750743 56.77709961 125.04711914 C56.9508461 125.72839371 57.12459259 126.40966827 57.30360413 127.11158752 C58.49975586 131.87978471 58.49975586 131.87978471 58.49975586 134.11352539 C49.25975586 134.11352539 40.01975586 134.11352539 30.49975586 134.11352539 C29.83975586 131.59727539 29.17975586 129.08102539 28.49975586 126.48852539 C28.18651367 125.31749268 28.18651367 125.31749268 27.86694336 124.12280273 C27.70452148 123.48810059 27.54209961 122.85339844 27.37475586 122.19946289 C27.20717773 121.56057129 27.03959961 120.92167969 26.86694336 120.26342773 C26.49975586 118.11352539 26.49975586 118.11352539 26.49975586 112.11352539 C11.15475586 112.60852539 11.15475586 112.60852539 -4.50024414 113.11352539 C-6.15024414 120.04352539 -7.80024414 126.97352539 -9.50024414 134.11352539 C-18.74024414 134.11352539 -27.98024414 134.11352539 -37.50024414 134.11352539 C-36.37523667 123.98845812 -36.37523667 123.98845812 -34.97241211 118.73828125 C-34.66001083 117.55638214 -34.34760956 116.37448303 -34.02574158 115.1567688 C-33.6847493 113.89339691 -33.34375702 112.63002502 -32.99243164 111.32836914 C-32.63038637 109.96840036 -32.26891533 108.60827861 -31.90797424 107.24801636 C-30.93874851 103.60192398 -29.9615421 99.95801627 -28.98261642 96.31451797 C-27.96470176 92.52105827 -26.95368469 88.72576093 -25.94189453 84.93066406 C-24.28414515 78.71614132 -22.62186757 72.5028454 -20.95678711 66.2902832 C-18.80772575 58.27078534 -16.67258332 50.24764135 -14.54179382 42.22327232 C-13.33644321 37.68606459 -12.12793521 33.14969735 -10.91949463 28.61331177 C-10.26542442 26.15673631 -9.61222495 23.69992885 -8.9598999 21.2428894 C-8.05872721 17.85120783 -7.1531814 14.46072568 -6.24633789 11.07055664 C-5.84760216 9.56463455 -5.84760216 9.56463455 -5.44081116 8.02828979 C-5.19801926 7.12418365 -4.95522736 6.22007751 -4.70507812 5.28857422 C-4.49511703 4.50106277 -4.28515594 3.71355133 -4.0688324 2.9021759 C-3.19421718 0.15083355 -2.97956509 0.1352893 0 0 Z " fill="#FAFAFA" transform="translate(234.500244140625,494.886474609375)"/>
<path d="M0 0 C57.36712329 0 57.36712329 0 66.5546875 8.42578125 C76.92490093 19.23453604 76.37611582 34.83774632 76.22265625 48.83203125 C75.91517296 59.50112123 73.05445308 69.27818616 65.859375 77.328125 C54.85089495 87.22650623 41.00157622 86 27 86 C27 101.84 27 117.68 27 134 C18.09 134 9.18 134 0 134 C0 89.78 0 45.56 0 0 Z " fill="#FAFAFA" transform="translate(127,495)"/>
<path d="M0 0 C9.13490534 5.7337709 13.0786397 12.58114776 16.49609375 22.67578125 C17.58883869 27.57980733 17.49609375 31.44653995 17.49609375 36.67578125 C8.58609375 36.67578125 -0.32390625 36.67578125 -9.50390625 36.67578125 C-10.49390625 32.71578125 -11.48390625 28.75578125 -12.50390625 24.67578125 C-16.85963518 21.40898455 -18.25276896 21.08980821 -23.37890625 21.25 C-25.79527234 21.5420172 -25.79527234 21.5420172 -28.00390625 23.98828125 C-30.23607921 27.98759113 -30.71010842 31.08723138 -30.81640625 35.61328125 C-30.85378906 36.65355469 -30.89117188 37.69382812 -30.9296875 38.765625 C-30.38979812 42.45569465 -29.32224233 43.29933317 -26.50390625 45.67578125 C-23.91529693 46.92468404 -23.91529693 46.92468404 -21.03125 47.82421875 C-19.96583984 48.1903125 -18.90042969 48.55640625 -17.80273438 48.93359375 C-16.69349609 49.30226563 -15.58425781 49.6709375 -14.44140625 50.05078125 C10.29029158 58.29959053 10.29029158 58.29959053 15.49609375 68.67578125 C20.78428862 81.47240548 20.51287581 99.83931864 15.49609375 112.67578125 C11.98026864 120.50710934 5.30824589 127.47376643 -2.75390625 130.61328125 C-15.67110014 134.27315285 -30.15494979 134.32052225 -42.50390625 128.67578125 C-50.9268412 123.74099593 -55.92658281 117.08486156 -58.50390625 107.67578125 C-59.09306702 102.98684058 -59.31837488 98.40683117 -59.50390625 93.67578125 C-50.26390625 93.67578125 -41.02390625 93.67578125 -31.50390625 93.67578125 C-30.84390625 96.64578125 -30.18390625 99.61578125 -29.50390625 102.67578125 C-27.4139213 105.77909223 -26.05837422 107.33441896 -22.3515625 108.1484375 C-18.0510851 108.42750342 -16.05137909 108.07498019 -12.50390625 105.48828125 C-9.49487053 101.25682477 -9.35222211 97.27595994 -9.31640625 92.17578125 C-9.30222656 91.25796875 -9.28804687 90.34015625 -9.2734375 89.39453125 C-9.53039658 86.36328512 -10.12549813 84.38815846 -11.50390625 81.67578125 C-13.50699852 80.15951491 -13.50699852 80.15951491 -15.96875 79.140625 C-17.31428955 78.5216333 -17.31428955 78.5216333 -18.68701172 77.89013672 C-19.61658691 77.48939941 -20.54616211 77.08866211 -21.50390625 76.67578125 C-22.37547363 76.29953613 -23.24704102 75.92329102 -24.14501953 75.53564453 C-27.66338471 74.04637204 -31.1945872 72.59096299 -34.73632812 71.15820312 C-42.88691698 67.7596181 -51.45567691 63.92794105 -55.50390625 55.67578125 C-60.19504462 43.8663503 -60.04197184 30.54957997 -55.82421875 18.6484375 C-51.01889498 7.82935055 -44.08202815 1.85364338 -33.31640625 -2.69921875 C-22.50878162 -6.31183733 -10.0783912 -5.3300696 0 0 Z " fill="#FAFAFA" transform="translate(679.50390625,497.32421875)"/>
<path d="M0 0 C20.79 0 41.58 0 63 0 C63 7.92 63 15.84 63 24 C51.12 24 39.24 24 27 24 C27 34.23 27 44.46 27 55 C37.56 55 48.12 55 59 55 C59 62.59 59 70.18 59 78 C48.44 78 37.88 78 27 78 C27 88.56 27 99.12 27 110 C38.88 110 50.76 110 63 110 C63 117.92 63 125.84 63 134 C42.21 134 21.42 134 0 134 C0 89.78 0 45.56 0 0 Z " fill="#FAFAFA" transform="translate(544,495)"/>
<path d="M0 0 C8.91 0 17.82 0 27 0 C27 44.22 27 88.44 27 134 C18.09 134 9.18 134 0 134 C0 89.78 0 45.56 0 0 Z " fill="#FCFCFC" transform="translate(496,495)"/>
<path d="M0 0 C16 0 16 0 22 5 C25.42178496 12.48273673 25.4456421 21.06824657 25.3984375 29.16015625 C25.40130768 30.27128281 25.40417786 31.38240936 25.40713501 32.52720642 C25.40916109 34.85741694 25.4037342 37.18764504 25.39111328 39.51782227 C25.37502412 43.05719462 25.39102072 46.59542789 25.41015625 50.13476562 C25.40817386 52.41406499 25.40433027 54.69336365 25.3984375 56.97265625 C25.40754654 58.53718285 25.40754654 58.53718285 25.4168396 60.13331604 C25.34473198 67.77008157 25.06262998 77.27909095 19.5 83.125 C13.10505382 87.92120964 9.4427775 86 0 86 C0 57.62 0 29.24 0 0 Z " fill="#050505" transform="translate(331,519)"/>
<path d="M0 0 C15 0 15 0 20 3 C23.35293723 8.50839687 24.11828567 13.50055532 24.16113281 19.85668945 C24.17074036 21.01171463 24.1803479 22.16673981 24.19024658 23.35676575 C24.19449646 24.59641586 24.19874634 25.83606598 24.203125 27.11328125 C24.20882507 28.39679977 24.21452515 29.6803183 24.22039795 31.00273132 C24.2308777 33.71691277 24.23674005 36.43106487 24.24023438 39.14526367 C24.24571159 42.60504048 24.26973539 46.06442229 24.29820633 49.52407551 C24.32142957 52.84546909 24.32328846 56.16681077 24.328125 59.48828125 C24.3404718 60.72185867 24.3528186 61.9554361 24.36553955 63.22639465 C24.34577821 70.89416044 24.04964032 77.28325086 19 83.4375 C13.17009567 87.99211276 8.18421917 86 0 86 C0 57.62 0 29.24 0 0 Z " fill="#030303" transform="translate(427,519)"/>
<path d="M0 0 C0.66 0 1.32 0 2 0 C6.61877441 14.02127945 7.0677462 29.35229672 1 43 C-3.82220871 52.175388 -11.46485519 59.54859512 -18.81420898 66.72412109 C-31.65662898 79.30057931 -40.85855661 91.68586472 -43 110 C-43.66 110 -44.32 110 -45 110 C-45.69854027 74.66460905 -39.64142703 51.00655263 -18 23 C-17.15188004 21.89358447 -16.30423574 20.78680418 -15.45703125 19.6796875 C-12.97988131 16.44648784 -10.49151698 13.22214305 -8 10 C-7.28972656 9.08089844 -6.57945312 8.16179687 -5.84765625 7.21484375 C-1.13952465 1.13952465 -1.13952465 1.13952465 0 0 Z " fill="#F9F9F9" transform="translate(380,70)"/>
<path d="M0 0 C3.63 0 7.26 0 11 0 C12.85605412 7.06462497 14.7073471 14.1304736 16.55419922 21.19750977 C17.18341794 23.60247663 17.81394648 26.00710119 18.44580078 28.41137695 C19.35271594 31.8632071 20.25494499 35.31623261 21.15625 38.76953125 C21.44060913 39.84773636 21.72496826 40.92594147 22.01794434 42.03681946 C22.27821411 43.03763046 22.53848389 44.03844147 22.80664062 45.06958008 C23.15305603 46.39195427 23.15305603 46.39195427 23.50646973 47.74104309 C24 50 24 50 24 53 C20.37 53 16.74 53 13 53 C12.34 50.03 11.68 47.06 11 44 C7.37 44 3.74 44 0 44 C-0.66 46.97 -1.32 49.94 -2 53 C-5.63 53 -9.26 53 -13 53 C-9.3222875 35.17723942 -4.58695498 17.6048624 0 0 Z " fill="#F2F2F2" transform="translate(392,641)"/>
<path d="M0 0 C7.92 0 15.84 0 24 0 C24 3.3 24 6.6 24 10 C19.71 10 15.42 10 11 10 C11 13.63 11 17.26 11 21 C14.96 21 18.92 21 23 21 C23 24.3 23 27.6 23 31 C19.04 31 15.08 31 11 31 C11 34.96 11 38.92 11 43 C15.29 43 19.58 43 24 43 C24 46.3 24 49.6 24 53 C16.08 53 8.16 53 0 53 C0 35.51 0 18.02 0 0 Z " fill="#F2F2F2" transform="translate(449,641)"/>
<path d="M0 0 C4.13244266 1.53053432 6.96042429 3.02819467 9 7 C9.52470095 9.68009012 9.77242523 12.26910276 10 15 C6.37 15 2.74 15 -1 15 C-1.33 13.68 -1.66 12.36 -2 11 C-3.65 10.67 -5.3 10.34 -7 10 C-7.02469081 14.3782512 -7.04285557 18.75646567 -7.05493164 23.13476562 C-7.05996514 24.62468166 -7.06679242 26.11459274 -7.07543945 27.60449219 C-7.08754805 29.74415304 -7.09323807 31.88374868 -7.09765625 34.0234375 C-7.10289307 35.31169434 -7.10812988 36.59995117 -7.11352539 37.92724609 C-7.21542631 40.91405228 -7.21542631 40.91405228 -6 43 C-4.02 42.505 -4.02 42.505 -2 42 C-1.67 40.68 -1.34 39.36 -1 38 C2.63 38 6.26 38 10 38 C9.6173991 43.64336328 9.22146091 46.89915226 5 51 C0.29735802 53.8704438 -4.6618848 53.86706673 -10 53 C-14.86180373 50.4225544 -17.28527418 47.17097704 -19 42 C-19.38776046 37.59256476 -19.37162391 33.18477157 -19.37060547 28.76269531 C-19.37497358 26.63785307 -19.41131686 24.51509971 -19.44921875 22.390625 C-19.55542851 9.68391354 -19.55542851 9.68391354 -15 4 C-10.28615331 -0.27534932 -6.10880488 -0.90865736 0 0 Z " fill="#F4F4F4" transform="translate(367,641)"/>
<path d="M0 0 C0.99 0.33 1.98 0.66 3 1 C5.41788378 11.2110629 5.61481072 22.7139571 0.30859375 31.96484375 C-3.76557771 37.32124176 -8.63848602 41.86164152 -13.484375 46.51171875 C-20.3880359 53.2115882 -25.53915003 61.35839019 -27 71 C-27.66 71 -28.32 71 -29 71 C-30.16593677 43.30900171 -21.17462767 26.22571284 -4 5 C-2.66640479 3.33354287 -1.33292994 1.6669893 0 0 Z " fill="#F7F7F7" transform="translate(412,129)"/>
<path d="M0 0 C15 0 15 0 20 4 C22.66428305 8.4592532 22.33202673 13.3292925 22.3125 18.375 C22.32861328 19.2 22.34472656 20.025 22.36132812 20.875 C22.36566686 26.34180707 21.60568185 30.1698032 19 35 C13.14416876 39.77712549 8.11357948 38 0 38 C0 25.46 0 12.92 0 0 Z " fill="#040404" transform="translate(154,519)"/>
<path d="M0 0 C7.59 0 15.18 0 23 0 C23 3.3 23 6.6 23 10 C18.71 10 14.42 10 10 10 C10 13.63 10 17.26 10 21 C13.63 21 17.26 21 21 21 C21 23.97 21 26.94 21 30 C17.37 30 13.74 30 10 30 C10 37.59 10 45.18 10 53 C6.7 53 3.4 53 0 53 C0 35.51 0 18.02 0 0 Z " fill="#F2F2F2" transform="translate(421,641)"/>
<path d="M0 0 C2.55976467 2.55976467 2.67658718 4.32993027 3.40234375 7.86328125 C3.77842773 9.66055664 3.77842773 9.66055664 4.16210938 11.49414062 C4.41798828 12.75419922 4.67386719 14.01425781 4.9375 15.3125 C5.44558086 17.76714128 5.95469132 20.22156967 6.46484375 22.67578125 C6.71476074 23.8870166 6.96467773 25.09825195 7.22216797 26.34619141 C8.22198225 31.04274525 9.32494754 35.71201358 10.45141602 40.37963867 C11 43 11 43 11 46 C4.4 46 -2.2 46 -9 46 C-8.37319876 36.22986001 -6.11258493 26.89087992 -3.9375 17.375 C-3.55609644 15.68632073 -3.17523252 13.99751949 -2.79492188 12.30859375 C-1.8694994 8.20429583 -0.93678107 4.10171962 0 0 Z " fill="#0A0A0A" transform="translate(244,538)"/>
<path d="M0 0 C0.66 1.32 1.32 2.64 2 4 C1.34 4 0.68 4 0 4 C0 25.12 0 46.24 0 68 C-0.33 68 -0.66 68 -1 68 C-2.50833705 55.79863066 -3.19359356 43.73583594 -3.1875 31.4375 C-3.18814453 30.19081543 -3.18878906 28.94413086 -3.18945312 27.65966797 C-3.06768988 6.89626653 -3.06768988 6.89626653 0 0 Z " fill="#B0B0B0" transform="translate(123,220)"/>
<path d="M0 0 C0.66 0 1.32 0 2 0 C2.33 2.31 2.66 4.62 3 7 C-0.75 8.125 -0.75 8.125 -3 7 C-3 7.66 -3 8.32 -3 9 C-4.875 11.125 -4.875 11.125 -7 13 C-7.66 13 -8.32 13 -9 13 C-9.2475 13.78375 -9.495 14.5675 -9.75 15.375 C-11.18650005 18.3916501 -12.04720831 18.71565565 -15 20 C-10.56406291 13.04364411 -5.85736898 5.85736898 0 0 Z " fill="#E4E4E4" transform="translate(380,70)"/>
<path d="M0 0 C0.99 0.66 1.98 1.32 3 2 C3 2.66 3 3.32 3 4 C2.113125 4.391875 1.22625 4.78375 0.3125 5.1875 C-3.19531591 7.10687097 -5.21379577 9.14900032 -8 12 C-10.08193802 13.96192238 -12.19683389 15.88706389 -14.3125 17.8125 C-14.86228516 18.31458984 -15.41207031 18.81667969 -15.97851562 19.33398438 C-17.31805239 20.55703968 -18.65888992 21.77867008 -20 23 C-20.66 22.67 -21.32 22.34 -22 22 C-14.74 14.74 -7.48 7.48 0 0 Z " fill="#D5D5D5" transform="translate(690,675)"/>
<path d="M0 0 C2.05137315 3.48216283 2.56818592 6.77275657 3.125 10.75 C3.29257812 11.92046875 3.46015625 13.0909375 3.6328125 14.296875 C3.75398438 15.18890625 3.87515625 16.0809375 4 17 C1.69 17 -0.62 17 -3 17 C-2.68853528 15.10399631 -2.37578283 13.20820413 -2.0625 11.3125 C-1.88847656 10.25675781 -1.71445312 9.20101562 -1.53515625 8.11328125 C-1.06832879 5.39750396 -0.55577384 2.69875765 0 0 Z " fill="#161616" transform="translate(397,658)"/>
<path d="M0 0 C0.66 0.33 1.32 0.66 2 1 C-0.87976518 4.03975214 -3.28034026 6.16146589 -7 8 C-10.51561085 10.62899846 -13.54219047 13.41502115 -16.25 16.875 C-16.8275 17.57625 -17.405 18.2775 -18 19 C-18.99 19 -19.98 19 -21 19 C-21 17.02 -21 15.04 -21 13 C-20.34 14.32 -19.68 15.64 -19 17 C-18.59910156 16.50371094 -18.19820312 16.00742187 -17.78515625 15.49609375 C-12.57141323 9.26561173 -6.74400432 4.49600288 0 0 Z " fill="#D6D6D6" transform="translate(615,248)"/>
<path d="M0 0 C0.66 0.33 1.32 0.66 2 1 C1.38125 1.433125 0.7625 1.86625 0.125 2.3125 C-2.2197245 3.99740483 -2.2197245 3.99740483 -4 7 C-5 8 -6 9 -7 10 C-7.33 10.66 -7.66 11.32 -8 12 C-8.66 12 -9.32 12 -10 12 C-10.103125 12.639375 -10.20625 13.27875 -10.3125 13.9375 C-10.539375 14.618125 -10.76625 15.29875 -11 16 C-11.99 16.33 -12.98 16.66 -14 17 C-11.65662541 9.50120133 -6.72598965 3.84342266 0 0 Z " fill="#DDDDDD" transform="translate(639,498)"/>
<path d="M0 0 C0.33 0 0.66 0 1 0 C1.06058594 1.09699219 1.12117188 2.19398438 1.18359375 3.32421875 C1.26804498 4.77865654 1.35269066 6.23308305 1.4375 7.6875 C1.47681641 8.40873047 1.51613281 9.12996094 1.55664062 9.87304688 C1.73638984 12.90112985 1.95356476 15.77298328 2.5625 18.75 C3.25583563 22.3157261 2.54495835 25.42749528 2 29 C1.34 29 0.68 29 0 29 C0 19.43 0 9.86 0 0 Z " fill="#E1E1E1" transform="translate(335,151)"/>
<path d="M0 0 C1.09524227 3.52611954 1.09995526 6.76689346 1.0625 10.4453125 C1.05476563 11.68667969 1.04703125 12.92804687 1.0390625 14.20703125 C1.02617187 15.49996094 1.01328125 16.79289063 1 18.125 C0.97457817 20.6900628 0.95351543 23.25517373 0.9375 25.8203125 C0.92589844 26.95742676 0.91429687 28.09454102 0.90234375 29.26611328 C0.80940197 31.96463677 0.80940197 31.96463677 2 34 C1.34 34.66 0.68 35.32 0 36 C-1.4730043 33.0539914 -1.12989305 30.41391588 -1.1328125 27.12890625 C-1.13376923 26.45077377 -1.13472595 25.7726413 -1.13571167 25.07395935 C-1.1363924 23.63906766 -1.13454554 22.20417289 -1.13037109 20.76928711 C-1.12502954 18.57463641 -1.13031534 16.38019113 -1.13671875 14.18554688 C-1.13605779 12.79166622 -1.13477625 11.39778568 -1.1328125 10.00390625 C-1.13168457 8.73361572 -1.13055664 7.4633252 -1.12939453 6.15454102 C-1 3 -1 3 0 0 Z " fill="#CDCDCD" transform="translate(349,649)"/>
<path d="M0 0 C0.625 1.8125 0.625 1.8125 1 4 C0.01 5.485 0.01 5.485 -1 7 C-1.63292383 9.11280345 -1.63292383 9.11280345 -2 11 C-3.98 11.33 -5.96 11.66 -8 12 C-6.49087042 7.01987239 -3.44338151 3.75740058 0 0 Z " fill="#E3E3E3" transform="translate(363,92)"/>
<path d="M0 0 C1.13199353 0.9080162 2.25532363 1.82683826 3.375 2.75 C4.00148438 3.26046875 4.62796875 3.7709375 5.2734375 4.296875 C7.08312318 6.08199481 8.00117455 7.67949644 9 10 C7.68 10.33 6.36 10.66 5 11 C4.71125 10.401875 4.4225 9.80375 4.125 9.1875 C2.33106827 5.36322376 2.33106827 5.36322376 -1.125 3.3125 C-1.74375 3.209375 -2.3625 3.10625 -3 3 C-2.01 2.01 -1.02 1.02 0 0 Z " fill="#F3F3F3" transform="translate(122,680)"/>
<path d="M0 0 C3.63 0 7.26 0 11 0 C11 2.97 11 5.94 11 9 C10.67 9 10.34 9 10 9 C10 6.36 10 3.72 10 1 C7.05908413 1.18415432 7.05908413 1.18415432 4 2 C2.13209062 4.54714915 2 5.80869 2 9 C1.01 8.67 0.02 8.34 -1 8 C-1.125 2.25 -1.125 2.25 0 0 Z " fill="#DCDCDC" transform="translate(431,662)"/>
<path d="M0 0 C0.99 0.33 1.98 0.66 3 1 C2.67 4.3 2.34 7.6 2 11 C-2.95 11 -7.9 11 -13 11 C-13 10.67 -13 10.34 -13 10 C-8.71 10 -4.42 10 0 10 C0 6.7 0 3.4 0 0 Z " fill="#4B4B4B" transform="translate(473,641)"/>
<path d="M0 0 C0.66 0.33 1.32 0.66 2 1 C0.22054913 5.04420651 -2.39529673 8.46078487 -5 12 C-5.66 11.67 -6.32 11.34 -7 11 C-6.690625 10.4225 -6.38125 9.845 -6.0625 9.25 C-4.92499553 7.09208817 -4.92499553 7.09208817 -4.625 4.9375 C-3.77427005 2.30023717 -2.27786684 1.46959151 0 0 Z " fill="#0A0A0A" transform="translate(398,143)"/>
<path d="M0 0 C4.29 0 8.58 0 13 0 C13 0.33 13 0.66 13 1 C11.9275 1.103125 10.855 1.20625 9.75 1.3125 C5.26977675 2.12354692 5.26977675 2.12354692 2 5 C1.19053578 8.10197397 1.19053578 8.10197397 1 11 C0.67 11 0.34 11 0 11 C0 7.37 0 3.74 0 0 Z " fill="#1E1E1E" transform="translate(431,651)"/>
<path d="M0 0 C0.99 0.99 1.98 1.98 3 3 C-1.95 5.97 -1.95 5.97 -7 9 C-7.33 8.01 -7.66 7.02 -8 6 C-7.05125 5.38125 -6.1025 4.7625 -5.125 4.125 C-2.05554891 2.18029031 -2.05554891 2.18029031 0 0 Z " fill="#E9E9E9" transform="translate(367,617)"/>
<path d="M0 0 C1 3 1 3 0.0625 5.0625 C-0.288125 5.701875 -0.63875 6.34125 -1 7 C-1 7.66 -1 8.32 -1 9 C-3.97 9.66 -6.94 10.32 -10 11 C-9.278125 10.29875 -8.55625 9.5975 -7.8125 8.875 C-5.00176187 6.07229255 -2.50483774 3.07737208 0 0 Z " fill="#1B1B1B" transform="translate(471,612)"/>
<path d="M0 0 C2.76223278 2.76223278 2.57856291 5.20706617 3 9 C2.34 9 1.68 9 1 9 C0.34 10.32 -0.32 11.64 -1 13 C-1.33 13 -1.66 13 -2 13 C-1.85851011 11.3954444 -1.71164314 9.79136233 -1.5625 8.1875 C-1.48128906 7.29417969 -1.40007812 6.40085937 -1.31640625 5.48046875 C-1 3 -1 3 0 0 Z " fill="#252525" transform="translate(244,538)"/>
<path d="M0 0 C0 3.60800902 -0.37635632 6.75271264 -2 10 C-2.99 9.67 -3.98 9.34 -5 9 C-7.14255793 9.38932856 -7.14255793 9.38932856 -9 10 C-8.06409496 8.8944811 -7.12620142 7.79064547 -6.1875 6.6875 C-5.66542969 6.07261719 -5.14335938 5.45773437 -4.60546875 4.82421875 C-3.12827531 3.14575321 -1.59960869 1.56117966 0 0 Z " fill="#1D1D1D" transform="translate(531,430)"/>
<path d="M0 0 C0.66 0 1.32 0 2 0 C2.33 0.99 2.66 1.98 3 3 C0.6875 6.1875 0.6875 6.1875 -2 9 C-2.66 9 -3.32 9 -4 9 C-4 7.35 -4 5.7 -4 4 C-2.68 3.34 -1.36 2.68 0 2 C0 1.34 0 0.68 0 0 Z " fill="#E8E8E8" transform="translate(193,565)"/>
<path d="M0 0 C1 2 1 2 0.8125 3.875 C-0.24938345 6.65223363 -1.81415988 8.00151761 -4 10 C-4.7425 10.7425 -5.485 11.485 -6.25 12.25 C-6.8275 12.8275 -7.405 13.405 -8 14 C-8 9.96618977 -6.40426438 8.50566363 -4 5.3125 C-3.2575 4.31863281 -2.515 3.32476562 -1.75 2.30078125 C-1.1725 1.54152344 -0.595 0.78226563 0 0 Z " fill="#D0D0D0" transform="translate(401,143)"/>
<path d="M0 0 C1.65 0 3.3 0 5 0 C6.09506492 3.28519475 6.09960608 5.73663415 6.0625 9.1875 C6.05347656 10.27417969 6.04445313 11.36085938 6.03515625 12.48046875 C6.02355469 13.31191406 6.01195312 14.14335938 6 15 C5.67 15 5.34 15 5 15 C4.80664062 14.16855469 4.61328125 13.33710937 4.4140625 12.48046875 C4.15367187 11.39378906 3.89328125 10.30710937 3.625 9.1875 C3.36976563 8.10855469 3.11453125 7.02960937 2.8515625 5.91796875 C2.11267119 2.84466657 2.11267119 2.84466657 0 0 Z " fill="#D1D1D1" transform="translate(350,521)"/>
<path d="M0 0 C0.66 0.33 1.32 0.66 2 1 C1.21625 1.763125 0.4325 2.52625 -0.375 3.3125 C-3.07257717 5.90891805 -3.07257717 5.90891805 -5 9 C-7.625 9.6875 -7.625 9.6875 -10 10 C-3.84965831 2.51708428 -3.84965831 2.51708428 0 0 Z " fill="#262626" transform="translate(619,277)"/>
<path d="M0 0 C2.4375 0.75 2.4375 0.75 5 2 C5.8125 4.125 5.8125 4.125 6 6 C5.01 6.495 5.01 6.495 4 7 C2.02 5.68 0.04 4.36 -2 3 C-1.34 2.67 -0.68 2.34 0 2 C0 1.34 0 0.68 0 0 Z " fill="#E8E8E8" transform="translate(632,80)"/>
<path d="M0 0 C0.99 0.66 1.98 1.32 3 2 C3 2.66 3 3.32 3 4 C0.33333333 5.33333333 -2.33333333 6.66666667 -5 8 C-4.45773019 4.20411134 -2.79872437 2.52788007 0 0 Z " fill="#E2E2E2" transform="translate(690,675)"/>
<path d="M0 0 C2.12046792 3.53411321 2.53199289 6.94393835 3 11 C2.34 11 1.68 11 1 11 C1 10.34 1 9.68 1 9 C0.34 9 -0.32 9 -1 9 C-1.33 9.99 -1.66 10.98 -2 12 C-1.44687265 7.97007218 -0.8441938 3.97977076 0 0 Z " fill="#2E2E2E" transform="translate(397,658)"/>
<path d="M0 0 C0.66 1.32 1.32 2.64 2 4 C1.34 4 0.68 4 0 4 C-0.33 9.61 -0.66 15.22 -1 21 C-1.33 21 -1.66 21 -2 21 C-2.05420701 18.43721301 -2.09377007 15.87558517 -2.125 13.3125 C-2.15013672 12.2306543 -2.15013672 12.2306543 -2.17578125 11.12695312 C-2.21391569 6.95123219 -1.8789919 3.7505862 0 0 Z " fill="#CBCBCB" transform="translate(123,220)"/>
<path d="M0 0 C0.99 0.33 1.98 0.66 3 1 C2.40072174 4.35595828 1.15377564 6.37801226 -1 9 C-1.99 8.67 -2.98 8.34 -4 8 C-2.982983 4.94894899 -2.17353952 4.17353952 0 2 C0 1.34 0 0.68 0 0 Z " fill="#F1F1F1" transform="translate(83,170)"/>
<path d="M0 0 C2 3 2 3 2 6 C-1 7 -1 7 -3.1875 6.0625 C-3.785625 5.711875 -4.38375 5.36125 -5 5 C-3.35 3.35 -1.7 1.7 0 0 Z " fill="#121212" transform="translate(372,125)"/>
<path d="M0 0 C0.33 0 0.66 0 1 0 C1.33 5.94 1.66 11.88 2 18 C1.01 18 0.02 18 -1 18 C-0.505 9.09 -0.505 9.09 0 0 Z " fill="#D7D7D7" transform="translate(451,578)"/>
<path d="M0 0 C0.66 0.33 1.32 0.66 2 1 C-0.80804268 3.96404505 -3.18315774 6.44499019 -7 8 C-6.875 6.25 -6.875 6.25 -6 4 C-2.9375 1.75 -2.9375 1.75 0 0 Z " fill="#E2E2E2" transform="translate(615,248)"/>
<path d="M0 0 C0.66 0 1.32 0 2 0 C2.103125 0.639375 2.20625 1.27875 2.3125 1.9375 C2.539375 2.618125 2.76625 3.29875 3 4 C3.99 4.33 4.98 4.66 6 5 C6.33 5.99 6.66 6.98 7 8 C6.01 9.485 6.01 9.485 5 11 C3.35 7.37 1.7 3.74 0 0 Z " fill="#CECECE" transform="translate(758,231)"/>
<path d="M0 0 C4.875 3.625 4.875 3.625 6 7 C5.01 7.495 5.01 7.495 4 8 C2 6.25 2 6.25 0 4 C0 2.68 0 1.36 0 0 Z " fill="#EEEEEE" transform="translate(464,504)"/>
<path d="M0 0 C0.33 0.66 0.66 1.32 1 2 C1.99 2.33 2.98 2.66 4 3 C2.1875 4.5625 2.1875 4.5625 0 6 C-0.99 5.67 -1.98 5.34 -3 5 C-3.33 4.01 -3.66 3.02 -4 2 C-2.68 1.34 -1.36 0.68 0 0 Z " fill="#F0F0F0" transform="translate(656,376)"/>
<path d="M0 0 C0.33 1.32 0.66 2.64 1 4 C-1.64 5.98 -4.28 7.96 -7 10 C-4.98127747 5.96255494 -2.91899872 3.37989325 0 0 Z " fill="#313131" transform="translate(397,176)"/>
<path d="M0 0 C0.33 0 0.66 0 1 0 C1 1.65 1 3.3 1 5 C1.66 5 2.32 5 3 5 C3 5.99 3 6.98 3 8 C2.360625 8.12375 1.72125 8.2475 1.0625 8.375 C0.381875 8.58125 -0.29875 8.7875 -1 9 C-1.33 9.66 -1.66 10.32 -2 11 C-2 10.01 -2 9.02 -2 8 C-1.34 8 -0.68 8 0 8 C0 5.36 0 2.72 0 0 Z " fill="#262626" transform="translate(337,172)"/>
<path d="M0 0 C1.65 0.33 3.3 0.66 5 1 C2.87219421 3.34058637 0.88437779 4.70700306 -2 6 C-2 4.68 -2 3.36 -2 2 C-1.34 2 -0.68 2 0 2 C0 1.34 0 0.68 0 0 Z " fill="#121212" transform="translate(607,738)"/>
<path d="M0 0 C0.66 1.32 1.32 2.64 2 4 C1.01 4.495 1.01 4.495 0 5 C-1.13350534 7.01669827 -1.13350534 7.01669827 -2 9 C-2.66 9 -3.32 9 -4 9 C-2.94124926 5.59687262 -1.99097846 2.98646769 0 0 Z " fill="#D9D9D9" transform="translate(748,596)"/>
<path d="M0 0 C0.625 1.8125 0.625 1.8125 1 4 C-1.0072908 7.0109362 -1.83884224 7.63016497 -5 9 C-3.7508258 5.54074837 -2.32472205 2.85306797 0 0 Z " fill="#272727" transform="translate(72,193)"/>
<path d="M0 0 C0 4.38968456 -2.12805101 5.76905739 -5 9 C-5.66 8.67 -6.32 8.34 -7 8 C-4.69 5.36 -2.38 2.72 0 0 Z " fill="#2E2E2E" transform="translate(358,139)"/>
<path d="M0 0 C0.66 1.32 1.32 2.64 2 4 C1.360625 4.28875 0.72125 4.5775 0.0625 4.875 C-2.15206079 5.82823451 -2.15206079 5.82823451 -3 8 C-3.66 7.67 -4.32 7.34 -5 7 C-3.35 4.69 -1.7 2.38 0 0 Z " fill="#D3D3D3" transform="translate(407,135)"/>
<path d="M0 0 C0.99 1.32 1.98 2.64 3 4 C1.02 4.99 -0.96 5.98 -3 7 C-2.38722388 4.03824877 -1.74627478 2.61941217 0 0 Z " fill="#EEEEEE" transform="translate(681,620)"/>
<path d="M0 0 C0.33 0 0.66 0 1 0 C1.25 7.625 1.25 7.625 -1 11 C-1.66 11 -2.32 11 -3 11 C-2.01 7.37 -1.02 3.74 0 0 Z " fill="#333333" transform="translate(380,600)"/>
<path d="M0 0 C0.66 0.33 1.32 0.66 2 1 C0.02 2.98 -1.96 4.96 -4 7 C-4.99 6.67 -5.98 6.34 -7 6 C-6.21625 5.38125 -5.4325 4.7625 -4.625 4.125 C-2.03162353 2.10141339 -2.03162353 2.10141339 0 0 Z " fill="#292929" transform="translate(498,461)"/>
<path d="M0 0 C0.33 0.99 0.66 1.98 1 3 C-0.65 4.65 -2.3 6.3 -4 8 C-4.66 7.67 -5.32 7.34 -6 7 C-4.02 4.69 -2.04 2.38 0 0 Z " fill="#272727" transform="translate(107,146)"/>
<path d="M0 0 C0 0.99 0 1.98 0 3 C0.33 3.66 0.66 4.32 1 5 C-2.37503669 3.8141763 -4.64722731 2.72426311 -7 0 C-4.3333581 -1.33332095 -2.83319697 -0.67102033 0 0 Z " fill="#E8E8E8" transform="translate(625,74)"/>
<path d="M0 0 C-2.64 1.65 -5.28 3.3 -8 5 C-8 4.34 -8 3.68 -8 3 C-8.66 2.67 -9.32 2.34 -10 2 C-8.71211992 1.46987262 -7.41953322 0.9511671 -6.125 0.4375 C-5.40570313 0.14746094 -4.68640625 -0.14257812 -3.9453125 -0.44140625 C-2 -1 -2 -1 0 0 Z " fill="#1D1D1D" transform="translate(264,39)"/>
<path d="M0 0 C0.66 0.33 1.32 0.66 2 1 C0.68 2.65 -0.64 4.3 -2 6 C-3.32 5.34 -4.64 4.68 -6 4 C-4.02 2.68 -2.04 1.36 0 0 Z " fill="#DDDDDD" transform="translate(630,727)"/>
<path d="M0 0 C0.33 0.99 0.66 1.98 1 3 C4.63 3 8.26 3 12 3 C12 3.33 12 3.66 12 4 C6.06 4.495 6.06 4.495 0 5 C-0.33 4.34 -0.66 3.68 -1 3 C-0.67 2.01 -0.34 1.02 0 0 Z " fill="#141414" transform="translate(404,691)"/>
<path d="M0 0 C2.125 0.375 2.125 0.375 4 1 C4.33 2.65 4.66 4.3 5 6 C1.535 4.02 1.535 4.02 -2 2 C-1.34 1.34 -0.68 0.68 0 0 Z " fill="#1E1E1E" transform="translate(188,497)"/>
<path d="M0 0 C0.33 0.66 0.66 1.32 1 2 C-1.25 4.0625 -1.25 4.0625 -4 6 C-5.32 5.67 -6.64 5.34 -8 5 C-4.04 2.525 -4.04 2.525 0 0 Z " fill="#212121" transform="translate(652,384)"/>
<path d="M0 0 C0.28875 0.61875 0.5775 1.2375 0.875 1.875 C1.93720042 4.13325765 1.93720042 4.13325765 4 6 C2.02 6 0.04 6 -2 6 C-1.34 4.02 -0.68 2.04 0 0 Z " fill="#292929" transform="translate(564,379)"/>
<path d="M0 0 C2.52588702 2.36292656 3.88820837 3.66462511 5 7 C3.125 6.8125 3.125 6.8125 1 6 C-0.25 3.4375 -0.25 3.4375 -1 1 C-0.67 0.67 -0.34 0.34 0 0 Z " fill="#141414" transform="translate(673,280)"/>
<path d="M0 0 C0.99 0.99 1.98 1.98 3 3 C2.2884375 3.6496875 2.2884375 3.6496875 1.5625 4.3125 C-0.23686957 6.02309613 -0.23686957 6.02309613 -1 9 C-1.66 9 -2.32 9 -3 9 C-2.01 6.03 -1.02 3.06 0 0 Z " fill="#242424" transform="translate(40,254)"/>
</svg>
